<mxfile host="app.diagrams.net" modified="2023-03-22T22:11:27.586Z" agent="5.0 (X11; Linux x86_64) AppleWebKit/537.36 (KHTML, like Gecko) Chrome/109.0.0.0 Safari/537.36" etag="sFyfCnZk48ztjl8tnJ-r" version="21.0.10" type="github">
  <diagram name="Page-1" id="FhL1HNKLLZ8oE8HKTnhb">
    <mxGraphModel dx="2473" dy="2329" grid="1" gridSize="10" guides="1" tooltips="1" connect="1" arrows="1" fold="1" page="1" pageScale="1" pageWidth="850" pageHeight="1100" math="0" shadow="0">
      <root>
        <mxCell id="0" />
        <mxCell id="1" parent="0" />
        <mxCell id="DlY7R9DRMtD9EthRwCqd-97" value="&lt;font&gt;Cloud Service&lt;/font&gt;" style="verticalAlign=top;align=left;spacingTop=8;spacingLeft=2;spacingRight=12;shape=cube;size=10;direction=south;fontStyle=4;html=1;labelBackgroundColor=none;hachureGap=4;fontFamily=Architects Daughter;fontSize=18;fontColor=default;fillColor=default;comic=0;strokeColor=default;sketch=1;fontSource=https%3A%2F%2Ffonts.googleapis.com%2Fcss%3Ffamily%3DArchitects%2BDaughter;" parent="1" vertex="1">
          <mxGeometry x="1240" y="20" width="130" height="220" as="geometry" />
        </mxCell>
        <mxCell id="DlY7R9DRMtD9EthRwCqd-80" value="&lt;font style=&quot;font-size: 18px;&quot;&gt;Traffic Counter Device&lt;/font&gt;" style="verticalAlign=top;align=left;spacingTop=8;spacingLeft=2;spacingRight=12;shape=cube;size=10;direction=south;fontStyle=4;html=1;hachureGap=4;fontFamily=Architects Daughter;fontSize=14;fillColor=default;comic=0;strokeColor=default;shadow=0;sketch=1;fontSource=https%3A%2F%2Ffonts.googleapis.com%2Fcss%3Ffamily%3DArchitects%2BDaughter;fontColor=default;" parent="1" vertex="1">
          <mxGeometry x="250" y="150" width="550" height="190" as="geometry" />
        </mxCell>
        <mxCell id="DlY7R9DRMtD9EthRwCqd-100" style="edgeStyle=orthogonalEdgeStyle;rounded=0;hachureGap=4;orthogonalLoop=1;jettySize=auto;html=1;entryX=1;entryY=0.5;entryDx=0;entryDy=0;strokeWidth=1;fontFamily=Architects Daughter;fontSize=18;fontColor=default;startArrow=none;startFill=0;endArrow=none;endFill=0;comic=0;strokeColor=default;sketch=1;fontSource=https%3A%2F%2Ffonts.googleapis.com%2Fcss%3Ffamily%3DArchitects%2BDaughter;" parent="1" source="DlY7R9DRMtD9EthRwCqd-22" target="DlY7R9DRMtD9EthRwCqd-45" edge="1">
          <mxGeometry relative="1" as="geometry" />
        </mxCell>
        <mxCell id="DlY7R9DRMtD9EthRwCqd-22" value="Database" style="shape=datastore;whiteSpace=wrap;html=1;hachureGap=4;fontFamily=Architects Daughter;fontSize=12;fillColor=default;comic=0;strokeColor=default;sketch=1;fontSource=https%3A%2F%2Ffonts.googleapis.com%2Fcss%3Ffamily%3DArchitects%2BDaughter;fontColor=default;" parent="1" vertex="1">
          <mxGeometry x="1260" y="65" width="75" height="75" as="geometry" />
        </mxCell>
        <mxCell id="DlY7R9DRMtD9EthRwCqd-101" style="edgeStyle=orthogonalEdgeStyle;rounded=0;hachureGap=4;orthogonalLoop=1;jettySize=auto;html=1;entryX=1;entryY=0.5;entryDx=0;entryDy=0;strokeWidth=1;fontFamily=Architects Daughter;fontSize=18;fontColor=default;startArrow=none;startFill=0;endArrow=none;endFill=0;comic=0;strokeColor=default;sketch=1;fontSource=https%3A%2F%2Ffonts.googleapis.com%2Fcss%3Ffamily%3DArchitects%2BDaughter;" parent="1" source="DlY7R9DRMtD9EthRwCqd-26" target="DlY7R9DRMtD9EthRwCqd-45" edge="1">
          <mxGeometry relative="1" as="geometry" />
        </mxCell>
        <mxCell id="DlY7R9DRMtD9EthRwCqd-26" value="Remote Storage" style="shape=datastore;whiteSpace=wrap;html=1;hachureGap=4;fontFamily=Architects Daughter;fontSize=12;fillColor=default;comic=0;strokeColor=default;sketch=1;fontSource=https%3A%2F%2Ffonts.googleapis.com%2Fcss%3Ffamily%3DArchitects%2BDaughter;fontColor=default;" parent="1" vertex="1">
          <mxGeometry x="1260" y="160" width="75" height="65" as="geometry" />
        </mxCell>
        <mxCell id="DlY7R9DRMtD9EthRwCqd-81" style="edgeStyle=orthogonalEdgeStyle;rounded=0;hachureGap=4;orthogonalLoop=1;jettySize=auto;html=1;entryX=0;entryY=0;entryDx=25;entryDy=170;entryPerimeter=0;fontFamily=Architects Daughter;fontSize=18;startArrow=none;startFill=0;endArrow=none;endFill=0;comic=0;strokeColor=default;sketch=1;fontSource=https%3A%2F%2Ffonts.googleapis.com%2Fcss%3Ffamily%3DArchitects%2BDaughter;fontColor=default;" parent="1" source="DlY7R9DRMtD9EthRwCqd-34" target="DlY7R9DRMtD9EthRwCqd-35" edge="1">
          <mxGeometry relative="1" as="geometry" />
        </mxCell>
        <mxCell id="DlY7R9DRMtD9EthRwCqd-83" style="edgeStyle=orthogonalEdgeStyle;rounded=0;hachureGap=4;orthogonalLoop=1;jettySize=auto;html=1;entryX=0;entryY=0;entryDx=25;entryDy=200;entryPerimeter=0;fontFamily=Architects Daughter;fontSize=18;startArrow=none;startFill=0;endArrow=none;endFill=0;comic=0;strokeColor=default;sketch=1;fontSource=https%3A%2F%2Ffonts.googleapis.com%2Fcss%3Ffamily%3DArchitects%2BDaughter;fontColor=default;" parent="1" source="DlY7R9DRMtD9EthRwCqd-34" target="DlY7R9DRMtD9EthRwCqd-53" edge="1">
          <mxGeometry relative="1" as="geometry">
            <Array as="points">
              <mxPoint x="510" y="240" />
              <mxPoint x="510" y="295" />
            </Array>
          </mxGeometry>
        </mxCell>
        <mxCell id="DlY7R9DRMtD9EthRwCqd-34" value="NVIDIA Jetson Nano &lt;br&gt;Developer Kit" style="verticalAlign=top;align=left;spacingTop=8;spacingLeft=2;spacingRight=12;shape=cube;size=10;direction=south;fontStyle=4;html=1;hachureGap=4;fontFamily=Architects Daughter;fontSize=18;fillColor=default;comic=0;strokeColor=default;shadow=0;sketch=1;fontSource=https%3A%2F%2Ffonts.googleapis.com%2Fcss%3Ffamily%3DArchitects%2BDaughter;fontColor=default;" parent="1" vertex="1">
          <mxGeometry x="277.25" y="210" width="200" height="60" as="geometry" />
        </mxCell>
        <mxCell id="xmQ5W1vkcLa3e4TFt4M9-25" style="edgeStyle=orthogonalEdgeStyle;rounded=0;comic=0;sketch=1;hachureGap=4;jiggle=2;curveFitting=1;orthogonalLoop=1;jettySize=auto;html=1;entryX=0.5;entryY=0;entryDx=0;entryDy=0;strokeColor=default;fontFamily=Architects Daughter;fontSize=14;endArrow=none;endFill=0;fontSource=https%3A%2F%2Ffonts.googleapis.com%2Fcss%3Ffamily%3DArchitects%2BDaughter;fontColor=default;" parent="1" source="DlY7R9DRMtD9EthRwCqd-2" target="xmQ5W1vkcLa3e4TFt4M9-20" edge="1">
          <mxGeometry relative="1" as="geometry">
            <Array as="points">
              <mxPoint x="655" y="710" />
              <mxPoint x="460" y="710" />
            </Array>
          </mxGeometry>
        </mxCell>
        <mxCell id="xmQ5W1vkcLa3e4TFt4M9-29" style="edgeStyle=orthogonalEdgeStyle;rounded=0;comic=0;sketch=1;hachureGap=4;jiggle=2;curveFitting=1;orthogonalLoop=1;jettySize=auto;html=1;strokeColor=default;fontFamily=Architects Daughter;fontSize=14;endArrow=none;endFill=0;fontSource=https%3A%2F%2Ffonts.googleapis.com%2Fcss%3Ffamily%3DArchitects%2BDaughter;fontColor=default;" parent="1" source="DlY7R9DRMtD9EthRwCqd-2" target="xmQ5W1vkcLa3e4TFt4M9-27" edge="1">
          <mxGeometry relative="1" as="geometry" />
        </mxCell>
        <mxCell id="xmQ5W1vkcLa3e4TFt4M9-31" style="edgeStyle=orthogonalEdgeStyle;rounded=0;comic=0;sketch=1;hachureGap=4;jiggle=2;curveFitting=1;orthogonalLoop=1;jettySize=auto;html=1;strokeColor=default;fontFamily=Architects Daughter;fontSize=14;endArrow=none;endFill=0;fontSource=https%3A%2F%2Ffonts.googleapis.com%2Fcss%3Ffamily%3DArchitects%2BDaughter;fontColor=default;" parent="1" source="DlY7R9DRMtD9EthRwCqd-2" target="xmQ5W1vkcLa3e4TFt4M9-16" edge="1">
          <mxGeometry relative="1" as="geometry">
            <Array as="points">
              <mxPoint x="745" y="710" />
              <mxPoint x="935" y="710" />
            </Array>
          </mxGeometry>
        </mxCell>
        <mxCell id="DlY7R9DRMtD9EthRwCqd-2" value="Network Interfacing" style="shape=module;align=left;spacingLeft=20;align=center;verticalAlign=top;hachureGap=4;fontFamily=Architects Daughter;fontSize=14;comic=0;strokeColor=default;sketch=1;fontSource=https%3A%2F%2Ffonts.googleapis.com%2Fcss%3Ffamily%3DArchitects%2BDaughter;fontColor=default;" parent="1" vertex="1">
          <mxGeometry x="665" y="665" width="160" height="30" as="geometry" />
        </mxCell>
        <mxCell id="DlY7R9DRMtD9EthRwCqd-61" style="edgeStyle=orthogonalEdgeStyle;rounded=0;hachureGap=4;orthogonalLoop=1;jettySize=auto;html=1;fontFamily=Architects Daughter;fontSize=14;startArrow=none;startFill=0;endArrow=none;endFill=0;comic=0;strokeColor=default;sketch=1;fontSource=https%3A%2F%2Ffonts.googleapis.com%2Fcss%3Ffamily%3DArchitects%2BDaughter;fontColor=default;" parent="1" source="DlY7R9DRMtD9EthRwCqd-3" target="DlY7R9DRMtD9EthRwCqd-58" edge="1">
          <mxGeometry relative="1" as="geometry">
            <Array as="points">
              <mxPoint x="202" y="760" />
              <mxPoint x="-100" y="760" />
            </Array>
          </mxGeometry>
        </mxCell>
        <mxCell id="DlY7R9DRMtD9EthRwCqd-69" style="edgeStyle=orthogonalEdgeStyle;rounded=0;hachureGap=4;orthogonalLoop=1;jettySize=auto;html=1;entryX=0.5;entryY=0;entryDx=0;entryDy=0;fontFamily=Architects Daughter;fontSize=14;startArrow=none;startFill=0;endArrow=none;endFill=0;comic=0;strokeColor=default;sketch=1;fontSource=https%3A%2F%2Ffonts.googleapis.com%2Fcss%3Ffamily%3DArchitects%2BDaughter;fontColor=default;" parent="1" source="DlY7R9DRMtD9EthRwCqd-3" target="DlY7R9DRMtD9EthRwCqd-67" edge="1">
          <mxGeometry relative="1" as="geometry">
            <Array as="points">
              <mxPoint x="202" y="760" />
              <mxPoint x="428" y="760" />
            </Array>
          </mxGeometry>
        </mxCell>
        <mxCell id="I-8A7EPQsvt3c0KuI_di-6" style="edgeStyle=orthogonalEdgeStyle;rounded=0;sketch=1;hachureGap=4;jiggle=2;curveFitting=1;orthogonalLoop=1;jettySize=auto;html=1;entryX=0.5;entryY=0;entryDx=0;entryDy=0;fontFamily=Architects Daughter;fontSource=https%3A%2F%2Ffonts.googleapis.com%2Fcss%3Ffamily%3DArchitects%2BDaughter;fontSize=16;endArrow=none;endFill=0;fontColor=default;" parent="1" source="DlY7R9DRMtD9EthRwCqd-3" target="I-8A7EPQsvt3c0KuI_di-2" edge="1">
          <mxGeometry relative="1" as="geometry" />
        </mxCell>
        <mxCell id="DlY7R9DRMtD9EthRwCqd-3" value="Traffic Counter App" style="shape=module;align=left;spacingLeft=20;align=center;verticalAlign=top;hachureGap=4;fontFamily=Architects Daughter;fontSize=14;comic=0;strokeColor=default;sketch=1;fontSource=https%3A%2F%2Ffonts.googleapis.com%2Fcss%3Ffamily%3DArchitects%2BDaughter;fontColor=default;" parent="1" vertex="1">
          <mxGeometry x="102.25" y="680" width="200" height="30" as="geometry" />
        </mxCell>
        <mxCell id="DlY7R9DRMtD9EthRwCqd-35" value="External Camera" style="verticalAlign=top;align=left;spacingTop=8;spacingLeft=2;spacingRight=12;shape=cube;size=10;direction=south;fontStyle=4;html=1;hachureGap=4;fontFamily=Architects Daughter;fontSize=18;fillColor=default;comic=0;strokeColor=default;shadow=0;sketch=1;fontSource=https%3A%2F%2Ffonts.googleapis.com%2Fcss%3Ffamily%3DArchitects%2BDaughter;fontColor=default;" parent="1" vertex="1">
          <mxGeometry x="590" y="190" width="170" height="40" as="geometry" />
        </mxCell>
        <mxCell id="DlY7R9DRMtD9EthRwCqd-42" value="Online Map API" style="html=1;strokeColor=default;fillColor=#0079D6;labelPosition=center;verticalLabelPosition=middle;verticalAlign=top;align=center;fontSize=12;outlineConnect=0;spacingTop=-6;fontColor=default;shape=mxgraph.sitemap.map;hachureGap=4;fontFamily=Architects Daughter;comic=0;sketch=0;fontSource=https%3A%2F%2Ffonts.googleapis.com%2Fcss%3Ffamily%3DArchitects%2BDaughter;" parent="1" vertex="1">
          <mxGeometry x="1071.38" y="255" width="120" height="70" as="geometry" />
        </mxCell>
        <mxCell id="DlY7R9DRMtD9EthRwCqd-45" value="" style="strokeColor=default;shadow=1;strokeWidth=1;rounded=1;absoluteArcSize=1;arcSize=2;hachureGap=4;fontFamily=Architects Daughter;fontSize=18;fillColor=default;labelBackgroundColor=none;fontColor=default;comic=0;sketch=1;fontSource=https%3A%2F%2Ffonts.googleapis.com%2Fcss%3Ffamily%3DArchitects%2BDaughter;" parent="1" vertex="1">
          <mxGeometry x="1070" y="110" width="122.75" height="60" as="geometry" />
        </mxCell>
        <mxCell id="DlY7R9DRMtD9EthRwCqd-46" value="Cloud&#xa;API" style="editableCssRules=.*;fontColor=default;shape=image;verticalLabelPosition=middle;labelBackgroundColor=none;verticalAlign=middle;labelPosition=right;align=left;spacingLeft=20;part=1;points=[];imageAspect=0;image=data:image/svg+xml,PHN2ZyB4bWxucz0iaHR0cDovL3d3dy53My5vcmcvMjAwMC9zdmciIHhtbG5zOnY9Imh0dHBzOi8vdmVjdGEuaW8vbmFubyIgd2lkdGg9IjIwIiBoZWlnaHQ9IjIwIiB2aWV3Qm94PSIwIDAgMjAgMjAiPiYjeGE7CTxzdHlsZSB0eXBlPSJ0ZXh0L2NzcyI+JiN4YTsJLnN0MHtmaWxsOiM0Mjg1ZjQ7fSYjeGE7CS5zdDF7ZmlsbDojNjY5ZGY2O30mI3hhOwkuc3Qye2ZpbGw6I2FlY2JmYTt9JiN4YTsJPC9zdHlsZT4mI3hhOwk8cGF0aCBjbGFzcz0ic3QwIiBkPSJNMTQuNDkgMTBMMTAgMTQuNDkgNS41MSAxMCAxMCA1LjUxek0xMCAxMi45MUwxMi45MSAxMCAxMCA3LjA5IDcuMDkgMTB6Ii8+JiN4YTsJPHBhdGggY2xhc3M9InN0MSIgZD0iTTIwIDEwaC0yLjY1bC0zLjAyIDMuMDJoMi42NXoiLz4mI3hhOwk8cGF0aCBjbGFzcz0ic3QyIiBkPSJNMjAgMTBsLTMuMDItMy4wMmgtMi42NUwxNy4zNSAxMHpNMCAxMGgyLjY1bDMuMDItMy4wMkgzLjAyeiIvPiYjeGE7CTxwYXRoIGNsYXNzPSJzdDEiIGQ9Ik01LjY3IDEzLjAyTDIuNjUgMTBIMGwzLjAyIDMuMDJ6Ii8+JiN4YTsJPHBhdGggY2xhc3M9InN0MiIgZD0iTTEwIDIuNjVWMEw2Ljk4IDMuMDJ2Mi42NXoiLz4mI3hhOwk8cGF0aCBjbGFzcz0ic3QxIiBkPSJNMTMuMDIgNS42N1YzLjAyTDEwIDB2Mi42NXoiLz4mI3hhOwk8cGF0aCBjbGFzcz0ic3QyIiBkPSJNMTAgMjB2LTIuNjVsLTMuMDItMy4wMnYyLjY1eiIvPiYjeGE7CTxwYXRoIGNsYXNzPSJzdDEiIGQ9Ik0xMy4wMiAxNi45OHYtMi42NUwxMCAxNy4zNVYyMHoiLz4mI3hhOzwvc3ZnPg==;hachureGap=4;fontFamily=Architects Daughter;fontSize=18;fillColor=default;comic=0;strokeColor=default;sketch=1;fontSource=https%3A%2F%2Ffonts.googleapis.com%2Fcss%3Ffamily%3DArchitects%2BDaughter;" parent="DlY7R9DRMtD9EthRwCqd-45" vertex="1">
          <mxGeometry width="30" height="30" relative="1" as="geometry">
            <mxPoint x="15" y="15" as="offset" />
          </mxGeometry>
        </mxCell>
        <mxCell id="xmQ5W1vkcLa3e4TFt4M9-57" style="edgeStyle=orthogonalEdgeStyle;rounded=0;comic=0;sketch=1;hachureGap=4;jiggle=2;curveFitting=1;orthogonalLoop=1;jettySize=auto;html=1;entryX=0;entryY=0.5;entryDx=0;entryDy=0;strokeColor=default;fontFamily=Architects Daughter;fontSize=14;endArrow=none;endFill=0;dashed=1;dashPattern=1 2;strokeWidth=3;fontSource=https%3A%2F%2Ffonts.googleapis.com%2Fcss%3Ffamily%3DArchitects%2BDaughter;fontColor=default;" parent="1" source="DlY7R9DRMtD9EthRwCqd-53" target="DlY7R9DRMtD9EthRwCqd-45" edge="1">
          <mxGeometry relative="1" as="geometry" />
        </mxCell>
        <mxCell id="xmQ5W1vkcLa3e4TFt4M9-58" style="edgeStyle=orthogonalEdgeStyle;rounded=0;comic=0;sketch=1;hachureGap=4;jiggle=2;curveFitting=1;orthogonalLoop=1;jettySize=auto;html=1;entryX=0;entryY=0.5;entryDx=0;entryDy=0;entryPerimeter=0;strokeColor=default;fontFamily=Architects Daughter;fontSize=14;endArrow=none;endFill=0;dashed=1;dashPattern=1 2;strokeWidth=3;fontSource=https%3A%2F%2Ffonts.googleapis.com%2Fcss%3Ffamily%3DArchitects%2BDaughter;fontColor=default;" parent="1" source="DlY7R9DRMtD9EthRwCqd-53" target="DlY7R9DRMtD9EthRwCqd-42" edge="1">
          <mxGeometry relative="1" as="geometry" />
        </mxCell>
        <mxCell id="DlY7R9DRMtD9EthRwCqd-53" value="Wireless NIC Module" style="verticalAlign=top;align=left;spacingTop=8;spacingLeft=2;spacingRight=12;shape=cube;size=10;direction=south;fontStyle=4;html=1;hachureGap=4;fontFamily=Architects Daughter;fontSize=18;fillColor=default;comic=0;strokeColor=default;shadow=0;sketch=1;fontSource=https%3A%2F%2Ffonts.googleapis.com%2Fcss%3Ffamily%3DArchitects%2BDaughter;fontColor=default;" parent="1" vertex="1">
          <mxGeometry x="560" y="270" width="200" height="40" as="geometry" />
        </mxCell>
        <mxCell id="DlY7R9DRMtD9EthRwCqd-56" style="edgeStyle=orthogonalEdgeStyle;rounded=0;hachureGap=4;orthogonalLoop=1;jettySize=auto;html=1;entryX=0.5;entryY=0;entryDx=0;entryDy=0;fontFamily=Architects Daughter;fontSize=18;startArrow=none;startFill=0;endArrow=none;endFill=0;comic=0;strokeColor=default;sketch=1;fontSource=https%3A%2F%2Ffonts.googleapis.com%2Fcss%3Ffamily%3DArchitects%2BDaughter;fontColor=default;" parent="1" source="DlY7R9DRMtD9EthRwCqd-55" target="DlY7R9DRMtD9EthRwCqd-3" edge="1">
          <mxGeometry relative="1" as="geometry">
            <Array as="points">
              <mxPoint x="422" y="630" />
              <mxPoint x="205" y="630" />
              <mxPoint x="205" y="680" />
            </Array>
          </mxGeometry>
        </mxCell>
        <mxCell id="DlY7R9DRMtD9EthRwCqd-84" style="edgeStyle=orthogonalEdgeStyle;rounded=0;hachureGap=4;orthogonalLoop=1;jettySize=auto;html=1;entryX=0;entryY=0;entryDx=60;entryDy=105;entryPerimeter=0;fontFamily=Architects Daughter;fontSize=18;startArrow=none;startFill=0;endArrow=none;endFill=0;comic=0;strokeColor=default;sketch=1;fontSource=https%3A%2F%2Ffonts.googleapis.com%2Fcss%3Ffamily%3DArchitects%2BDaughter;fontColor=default;" parent="1" source="DlY7R9DRMtD9EthRwCqd-55" target="DlY7R9DRMtD9EthRwCqd-34" edge="1">
          <mxGeometry relative="1" as="geometry">
            <Array as="points">
              <mxPoint x="427" y="380" />
              <mxPoint x="372" y="380" />
            </Array>
          </mxGeometry>
        </mxCell>
        <mxCell id="DlY7R9DRMtD9EthRwCqd-114" style="edgeStyle=orthogonalEdgeStyle;rounded=0;hachureGap=4;orthogonalLoop=1;jettySize=auto;html=1;strokeWidth=1;fontFamily=Architects Daughter;fontSize=14;fontColor=default;startArrow=none;startFill=0;endArrow=none;endFill=0;entryX=0.5;entryY=0;entryDx=0;entryDy=0;comic=0;strokeColor=default;sketch=1;fontSource=https%3A%2F%2Ffonts.googleapis.com%2Fcss%3Ffamily%3DArchitects%2BDaughter;" parent="1" source="DlY7R9DRMtD9EthRwCqd-55" target="DlY7R9DRMtD9EthRwCqd-115" edge="1">
          <mxGeometry relative="1" as="geometry">
            <mxPoint x="715.0000000000002" y="660" as="targetPoint" />
            <Array as="points">
              <mxPoint x="422" y="630" />
              <mxPoint x="1235" y="630" />
            </Array>
          </mxGeometry>
        </mxCell>
        <mxCell id="xmQ5W1vkcLa3e4TFt4M9-7" style="edgeStyle=orthogonalEdgeStyle;rounded=0;comic=0;sketch=1;hachureGap=4;jiggle=2;curveFitting=1;orthogonalLoop=1;jettySize=auto;html=1;strokeColor=default;fontFamily=Architects Daughter;fontSize=14;endArrow=none;endFill=0;fontSource=https%3A%2F%2Ffonts.googleapis.com%2Fcss%3Ffamily%3DArchitects%2BDaughter;fontColor=default;" parent="1" source="DlY7R9DRMtD9EthRwCqd-55" target="xmQ5W1vkcLa3e4TFt4M9-3" edge="1">
          <mxGeometry relative="1" as="geometry">
            <Array as="points">
              <mxPoint x="422" y="630" />
              <mxPoint x="-15" y="630" />
            </Array>
          </mxGeometry>
        </mxCell>
        <mxCell id="xmQ5W1vkcLa3e4TFt4M9-30" style="edgeStyle=orthogonalEdgeStyle;rounded=0;comic=0;sketch=1;hachureGap=4;jiggle=2;curveFitting=1;orthogonalLoop=1;jettySize=auto;html=1;entryX=0.5;entryY=0;entryDx=0;entryDy=0;strokeColor=default;fontFamily=Architects Daughter;fontSize=14;endArrow=none;endFill=0;fontSource=https%3A%2F%2Ffonts.googleapis.com%2Fcss%3Ffamily%3DArchitects%2BDaughter;fontColor=default;" parent="1" source="DlY7R9DRMtD9EthRwCqd-55" target="DlY7R9DRMtD9EthRwCqd-2" edge="1">
          <mxGeometry relative="1" as="geometry">
            <Array as="points">
              <mxPoint x="422" y="630" />
              <mxPoint x="745" y="630" />
            </Array>
          </mxGeometry>
        </mxCell>
        <mxCell id="xmQ5W1vkcLa3e4TFt4M9-40" style="edgeStyle=orthogonalEdgeStyle;rounded=0;comic=0;sketch=1;hachureGap=4;jiggle=2;curveFitting=1;orthogonalLoop=1;jettySize=auto;html=1;entryX=0;entryY=0;entryDx=0;entryDy=15;entryPerimeter=0;strokeColor=default;fontFamily=Architects Daughter;fontSize=14;endArrow=none;endFill=0;fontSource=https%3A%2F%2Ffonts.googleapis.com%2Fcss%3Ffamily%3DArchitects%2BDaughter;fontColor=default;" parent="1" source="DlY7R9DRMtD9EthRwCqd-55" target="xmQ5W1vkcLa3e4TFt4M9-38" edge="1">
          <mxGeometry relative="1" as="geometry" />
        </mxCell>
        <mxCell id="xmQ5W1vkcLa3e4TFt4M9-41" style="edgeStyle=orthogonalEdgeStyle;rounded=0;comic=0;sketch=1;hachureGap=4;jiggle=2;curveFitting=1;orthogonalLoop=1;jettySize=auto;html=1;entryX=0;entryY=0;entryDx=0;entryDy=15;entryPerimeter=0;strokeColor=default;fontFamily=Architects Daughter;fontSize=14;endArrow=none;endFill=0;fontSource=https%3A%2F%2Ffonts.googleapis.com%2Fcss%3Ffamily%3DArchitects%2BDaughter;fontColor=default;" parent="1" source="DlY7R9DRMtD9EthRwCqd-55" target="xmQ5W1vkcLa3e4TFt4M9-39" edge="1">
          <mxGeometry relative="1" as="geometry" />
        </mxCell>
        <mxCell id="xmQ5W1vkcLa3e4TFt4M9-51" style="edgeStyle=orthogonalEdgeStyle;rounded=0;comic=0;sketch=1;hachureGap=4;jiggle=2;curveFitting=1;orthogonalLoop=1;jettySize=auto;html=1;entryX=1;entryY=0.5;entryDx=0;entryDy=0;strokeColor=default;fontFamily=Architects Daughter;fontSize=14;endArrow=none;endFill=0;fontSource=https%3A%2F%2Ffonts.googleapis.com%2Fcss%3Ffamily%3DArchitects%2BDaughter;fontColor=default;" parent="1" source="DlY7R9DRMtD9EthRwCqd-55" target="xmQ5W1vkcLa3e4TFt4M9-33" edge="1">
          <mxGeometry relative="1" as="geometry" />
        </mxCell>
        <mxCell id="xmQ5W1vkcLa3e4TFt4M9-52" style="edgeStyle=orthogonalEdgeStyle;rounded=0;comic=0;sketch=1;hachureGap=4;jiggle=2;curveFitting=1;orthogonalLoop=1;jettySize=auto;html=1;entryX=1;entryY=0.5;entryDx=0;entryDy=0;strokeColor=default;fontFamily=Architects Daughter;fontSize=14;endArrow=none;endFill=0;fontSource=https%3A%2F%2Ffonts.googleapis.com%2Fcss%3Ffamily%3DArchitects%2BDaughter;fontColor=default;" parent="1" source="DlY7R9DRMtD9EthRwCqd-55" target="xmQ5W1vkcLa3e4TFt4M9-36" edge="1">
          <mxGeometry relative="1" as="geometry" />
        </mxCell>
        <mxCell id="R04J_yNQeiIlIAsg2Dsq-6" style="edgeStyle=orthogonalEdgeStyle;rounded=0;orthogonalLoop=1;jettySize=auto;html=1;entryX=1;entryY=0.5;entryDx=0;entryDy=0;fontColor=default;endArrow=none;endFill=0;sketch=1;fontFamily=Architects Daughter;fontSource=https%3A%2F%2Ffonts.googleapis.com%2Fcss%3Ffamily%3DArchitects%2BDaughter;" parent="1" source="DlY7R9DRMtD9EthRwCqd-55" target="R04J_yNQeiIlIAsg2Dsq-2" edge="1">
          <mxGeometry relative="1" as="geometry">
            <Array as="points">
              <mxPoint x="450" y="605" />
              <mxPoint x="505" y="605" />
              <mxPoint x="505" y="700" />
            </Array>
          </mxGeometry>
        </mxCell>
        <mxCell id="DlY7R9DRMtD9EthRwCqd-55" value="Linux4Tegra" style="shape=module;align=left;spacingLeft=20;align=center;verticalAlign=top;hachureGap=4;fontFamily=Architects Daughter;fontSize=14;fillColor=default;comic=0;strokeColor=default;sketch=1;fontSource=https%3A%2F%2Ffonts.googleapis.com%2Fcss%3Ffamily%3DArchitects%2BDaughter;fontColor=default;" parent="1" vertex="1">
          <mxGeometry x="365" y="500" width="120" height="30" as="geometry" />
        </mxCell>
        <mxCell id="DlY7R9DRMtD9EthRwCqd-66" style="edgeStyle=orthogonalEdgeStyle;rounded=0;hachureGap=4;orthogonalLoop=1;jettySize=auto;html=1;entryX=0.5;entryY=0;entryDx=0;entryDy=0;fontFamily=Architects Daughter;fontSize=14;startArrow=none;startFill=0;endArrow=none;endFill=0;comic=0;strokeColor=default;sketch=1;fontSource=https%3A%2F%2Ffonts.googleapis.com%2Fcss%3Ffamily%3DArchitects%2BDaughter;fontColor=default;" parent="1" source="DlY7R9DRMtD9EthRwCqd-58" target="DlY7R9DRMtD9EthRwCqd-64" edge="1">
          <mxGeometry relative="1" as="geometry" />
        </mxCell>
        <mxCell id="DlY7R9DRMtD9EthRwCqd-105" style="edgeStyle=orthogonalEdgeStyle;rounded=0;hachureGap=4;orthogonalLoop=1;jettySize=auto;html=1;entryX=0;entryY=0.5;entryDx=0;entryDy=0;strokeWidth=1;fontFamily=Architects Daughter;fontSize=18;fontColor=default;startArrow=none;startFill=0;endArrow=none;endFill=0;comic=0;strokeColor=default;sketch=1;fontSource=https%3A%2F%2Ffonts.googleapis.com%2Fcss%3Ffamily%3DArchitects%2BDaughter;" parent="1" source="DlY7R9DRMtD9EthRwCqd-58" target="DlY7R9DRMtD9EthRwCqd-67" edge="1">
          <mxGeometry relative="1" as="geometry" />
        </mxCell>
        <mxCell id="DlY7R9DRMtD9EthRwCqd-58" value="&lt;font style=&quot;font-size: 14px;&quot;&gt;Vehicle Detection&lt;/font&gt;" style="html=1;dropTarget=0;hachureGap=4;fontFamily=Architects Daughter;fontSize=14;fillColor=default;comic=0;strokeColor=default;sketch=1;fontSource=https%3A%2F%2Ffonts.googleapis.com%2Fcss%3Ffamily%3DArchitects%2BDaughter;fontColor=default;" parent="1" vertex="1">
          <mxGeometry x="-190" y="820" width="180" height="40" as="geometry" />
        </mxCell>
        <mxCell id="DlY7R9DRMtD9EthRwCqd-59" value="" style="shape=module;jettyWidth=8;jettyHeight=4;hachureGap=4;fontFamily=Architects Daughter;fontSize=18;fillColor=default;comic=0;strokeColor=default;sketch=1;fontSource=https%3A%2F%2Ffonts.googleapis.com%2Fcss%3Ffamily%3DArchitects%2BDaughter;fontColor=default;" parent="DlY7R9DRMtD9EthRwCqd-58" vertex="1">
          <mxGeometry x="1" width="20" height="20" relative="1" as="geometry">
            <mxPoint x="-27" y="7" as="offset" />
          </mxGeometry>
        </mxCell>
        <mxCell id="DlY7R9DRMtD9EthRwCqd-64" value="YOLOv8" style="html=1;dropTarget=0;hachureGap=4;fontFamily=Architects Daughter;fontSize=14;fillColor=default;comic=0;strokeColor=default;sketch=1;fontSource=https%3A%2F%2Ffonts.googleapis.com%2Fcss%3Ffamily%3DArchitects%2BDaughter;fontColor=default;" parent="1" vertex="1">
          <mxGeometry x="-172.5" y="910" width="145" height="40" as="geometry" />
        </mxCell>
        <mxCell id="DlY7R9DRMtD9EthRwCqd-65" value="" style="shape=module;jettyWidth=8;jettyHeight=4;hachureGap=4;fontFamily=Architects Daughter;fontSize=14;fillColor=default;comic=0;strokeColor=default;sketch=1;fontSource=https%3A%2F%2Ffonts.googleapis.com%2Fcss%3Ffamily%3DArchitects%2BDaughter;fontColor=default;" parent="DlY7R9DRMtD9EthRwCqd-64" vertex="1">
          <mxGeometry x="1" width="20" height="20" relative="1" as="geometry">
            <mxPoint x="-27" y="7" as="offset" />
          </mxGeometry>
        </mxCell>
        <mxCell id="DlY7R9DRMtD9EthRwCqd-75" style="edgeStyle=orthogonalEdgeStyle;rounded=0;hachureGap=4;orthogonalLoop=1;jettySize=auto;html=1;entryX=0.5;entryY=0;entryDx=0;entryDy=0;fontFamily=Architects Daughter;fontSize=14;startArrow=none;startFill=0;endArrow=none;endFill=0;comic=0;strokeColor=default;sketch=1;fontSource=https%3A%2F%2Ffonts.googleapis.com%2Fcss%3Ffamily%3DArchitects%2BDaughter;fontColor=default;" parent="1" source="DlY7R9DRMtD9EthRwCqd-67" target="DlY7R9DRMtD9EthRwCqd-73" edge="1">
          <mxGeometry relative="1" as="geometry" />
        </mxCell>
        <mxCell id="DlY7R9DRMtD9EthRwCqd-76" style="edgeStyle=orthogonalEdgeStyle;rounded=0;hachureGap=4;orthogonalLoop=1;jettySize=auto;html=1;fontFamily=Architects Daughter;fontSize=14;startArrow=none;startFill=0;endArrow=none;endFill=0;comic=0;strokeColor=default;sketch=1;fontSource=https%3A%2F%2Ffonts.googleapis.com%2Fcss%3Ffamily%3DArchitects%2BDaughter;fontColor=default;" parent="1" source="DlY7R9DRMtD9EthRwCqd-67" target="DlY7R9DRMtD9EthRwCqd-70" edge="1">
          <mxGeometry relative="1" as="geometry" />
        </mxCell>
        <mxCell id="DlY7R9DRMtD9EthRwCqd-67" value="&lt;font style=&quot;font-size: 14px;&quot;&gt;Vehicle Tracking&lt;/font&gt;" style="html=1;dropTarget=0;hachureGap=4;fontFamily=Architects Daughter;fontSize=14;fillColor=default;comic=0;strokeColor=default;sketch=1;fontSource=https%3A%2F%2Ffonts.googleapis.com%2Fcss%3Ffamily%3DArchitects%2BDaughter;fontColor=default;" parent="1" vertex="1">
          <mxGeometry x="337.5" y="820" width="180" height="40" as="geometry" />
        </mxCell>
        <mxCell id="DlY7R9DRMtD9EthRwCqd-68" value="" style="shape=module;jettyWidth=8;jettyHeight=4;hachureGap=4;fontFamily=Architects Daughter;fontSize=18;fillColor=default;comic=0;strokeColor=default;sketch=1;fontSource=https%3A%2F%2Ffonts.googleapis.com%2Fcss%3Ffamily%3DArchitects%2BDaughter;fontColor=default;" parent="DlY7R9DRMtD9EthRwCqd-67" vertex="1">
          <mxGeometry x="1" width="20" height="20" relative="1" as="geometry">
            <mxPoint x="-27" y="7" as="offset" />
          </mxGeometry>
        </mxCell>
        <mxCell id="DlY7R9DRMtD9EthRwCqd-70" value="OCSORT" style="html=1;dropTarget=0;hachureGap=4;fontFamily=Architects Daughter;fontSize=14;fillColor=default;comic=0;strokeColor=default;sketch=1;fontSource=https%3A%2F%2Ffonts.googleapis.com%2Fcss%3Ffamily%3DArchitects%2BDaughter;fontColor=default;" parent="1" vertex="1">
          <mxGeometry x="480" y="910" width="125" height="40" as="geometry" />
        </mxCell>
        <mxCell id="DlY7R9DRMtD9EthRwCqd-71" value="" style="shape=module;jettyWidth=8;jettyHeight=4;hachureGap=4;fontFamily=Architects Daughter;fontSize=14;fillColor=default;comic=0;strokeColor=default;sketch=1;fontSource=https%3A%2F%2Ffonts.googleapis.com%2Fcss%3Ffamily%3DArchitects%2BDaughter;fontColor=default;" parent="DlY7R9DRMtD9EthRwCqd-70" vertex="1">
          <mxGeometry x="1" width="20" height="20" relative="1" as="geometry">
            <mxPoint x="-27" y="7" as="offset" />
          </mxGeometry>
        </mxCell>
        <mxCell id="DlY7R9DRMtD9EthRwCqd-73" value="StrongSORT" style="html=1;dropTarget=0;hachureGap=4;fontFamily=Architects Daughter;fontSize=14;fillColor=default;comic=0;strokeColor=default;sketch=1;fontSource=https%3A%2F%2Ffonts.googleapis.com%2Fcss%3Ffamily%3DArchitects%2BDaughter;fontColor=default;" parent="1" vertex="1">
          <mxGeometry x="270" y="910" width="150" height="40" as="geometry" />
        </mxCell>
        <mxCell id="DlY7R9DRMtD9EthRwCqd-74" value="" style="shape=module;jettyWidth=8;jettyHeight=4;hachureGap=4;fontFamily=Architects Daughter;fontSize=14;fillColor=default;comic=0;strokeColor=default;sketch=1;fontSource=https%3A%2F%2Ffonts.googleapis.com%2Fcss%3Ffamily%3DArchitects%2BDaughter;fontColor=default;" parent="DlY7R9DRMtD9EthRwCqd-73" vertex="1">
          <mxGeometry x="1" width="20" height="20" relative="1" as="geometry">
            <mxPoint x="-27" y="7" as="offset" />
          </mxGeometry>
        </mxCell>
        <mxCell id="DlY7R9DRMtD9EthRwCqd-113" style="edgeStyle=orthogonalEdgeStyle;rounded=0;hachureGap=4;orthogonalLoop=1;jettySize=auto;html=1;strokeWidth=1;fontFamily=Architects Daughter;fontSize=14;fontColor=default;startArrow=none;startFill=0;endArrow=none;endFill=0;comic=0;strokeColor=default;sketch=1;fontSource=https%3A%2F%2Ffonts.googleapis.com%2Fcss%3Ffamily%3DArchitects%2BDaughter;" parent="1" source="DlY7R9DRMtD9EthRwCqd-106" target="DlY7R9DRMtD9EthRwCqd-111" edge="1">
          <mxGeometry relative="1" as="geometry" />
        </mxCell>
        <mxCell id="DlY7R9DRMtD9EthRwCqd-106" value="Login Page" style="html=1;dropTarget=0;labelBackgroundColor=none;hachureGap=4;fontFamily=Architects Daughter;fontSize=14;fontColor=default;fillColor=default;comic=0;strokeColor=default;sketch=1;fontSource=https%3A%2F%2Ffonts.googleapis.com%2Fcss%3Ffamily%3DArchitects%2BDaughter;" parent="1" vertex="1">
          <mxGeometry x="1165" y="770" width="140" height="30" as="geometry" />
        </mxCell>
        <mxCell id="DlY7R9DRMtD9EthRwCqd-107" value="" style="shape=module;jettyWidth=8;jettyHeight=4;labelBackgroundColor=none;hachureGap=4;fontFamily=Architects Daughter;fontSize=18;fontColor=default;fillColor=default;comic=0;strokeColor=default;sketch=1;fontSource=https%3A%2F%2Ffonts.googleapis.com%2Fcss%3Ffamily%3DArchitects%2BDaughter;" parent="DlY7R9DRMtD9EthRwCqd-106" vertex="1">
          <mxGeometry x="1" width="20" height="20" relative="1" as="geometry">
            <mxPoint x="-27" y="7" as="offset" />
          </mxGeometry>
        </mxCell>
        <mxCell id="DlY7R9DRMtD9EthRwCqd-111" value="User Authentication" style="html=1;dropTarget=0;labelBackgroundColor=none;hachureGap=4;fontFamily=Architects Daughter;fontSize=14;fontColor=default;fillColor=default;comic=0;strokeColor=default;sketch=1;fontSource=https%3A%2F%2Ffonts.googleapis.com%2Fcss%3Ffamily%3DArchitects%2BDaughter;" parent="1" vertex="1">
          <mxGeometry x="1135" y="840" width="200" height="30" as="geometry" />
        </mxCell>
        <mxCell id="DlY7R9DRMtD9EthRwCqd-112" value="" style="shape=module;jettyWidth=8;jettyHeight=4;labelBackgroundColor=none;hachureGap=4;fontFamily=Architects Daughter;fontSize=18;fontColor=default;fillColor=default;comic=0;strokeColor=default;sketch=1;fontSource=https%3A%2F%2Ffonts.googleapis.com%2Fcss%3Ffamily%3DArchitects%2BDaughter;" parent="DlY7R9DRMtD9EthRwCqd-111" vertex="1">
          <mxGeometry x="1" width="20" height="20" relative="1" as="geometry">
            <mxPoint x="-27" y="7" as="offset" />
          </mxGeometry>
        </mxCell>
        <mxCell id="DlY7R9DRMtD9EthRwCqd-116" style="edgeStyle=orthogonalEdgeStyle;rounded=0;hachureGap=4;orthogonalLoop=1;jettySize=auto;html=1;entryX=0.5;entryY=0;entryDx=0;entryDy=0;strokeWidth=1;fontFamily=Architects Daughter;fontSize=14;fontColor=default;startArrow=none;startFill=0;endArrow=none;endFill=0;comic=0;strokeColor=default;sketch=1;fontSource=https%3A%2F%2Ffonts.googleapis.com%2Fcss%3Ffamily%3DArchitects%2BDaughter;" parent="1" source="DlY7R9DRMtD9EthRwCqd-115" target="DlY7R9DRMtD9EthRwCqd-106" edge="1">
          <mxGeometry relative="1" as="geometry" />
        </mxCell>
        <mxCell id="DlY7R9DRMtD9EthRwCqd-115" value="Data Accessing App" style="shape=module;align=left;spacingLeft=20;align=center;verticalAlign=top;labelBackgroundColor=none;hachureGap=4;fontFamily=Architects Daughter;fontSize=14;fontColor=default;fillColor=default;comic=0;strokeColor=default;sketch=1;fontSource=https%3A%2F%2Ffonts.googleapis.com%2Fcss%3Ffamily%3DArchitects%2BDaughter;" parent="1" vertex="1">
          <mxGeometry x="1150" y="680" width="170" height="30" as="geometry" />
        </mxCell>
        <mxCell id="xmQ5W1vkcLa3e4TFt4M9-5" style="edgeStyle=orthogonalEdgeStyle;rounded=0;comic=0;sketch=1;hachureGap=4;jiggle=2;curveFitting=1;orthogonalLoop=1;jettySize=auto;html=1;strokeColor=default;fontFamily=Architects Daughter;fontSize=14;endArrow=none;endFill=0;fontSource=https%3A%2F%2Ffonts.googleapis.com%2Fcss%3Ffamily%3DArchitects%2BDaughter;fontColor=default;" parent="1" source="xmQ5W1vkcLa3e4TFt4M9-3" target="DlY7R9DRMtD9EthRwCqd-3" edge="1">
          <mxGeometry relative="1" as="geometry" />
        </mxCell>
        <mxCell id="xmQ5W1vkcLa3e4TFt4M9-3" value="Configuration" style="shape=module;align=left;spacingLeft=20;align=center;verticalAlign=top;shadow=0;sketch=1;hachureGap=4;jiggle=2;curveFitting=1;strokeColor=default;fontFamily=Architects Daughter;fontSize=14;fontSource=https%3A%2F%2Ffonts.googleapis.com%2Fcss%3Ffamily%3DArchitects%2BDaughter;fontColor=default;" parent="1" vertex="1">
          <mxGeometry x="-85" y="680" width="120" height="30" as="geometry" />
        </mxCell>
        <mxCell id="xmQ5W1vkcLa3e4TFt4M9-16" value="Network Manager" style="html=1;dropTarget=0;shadow=0;sketch=1;hachureGap=4;jiggle=2;curveFitting=1;strokeColor=default;fontFamily=Architects Daughter;fontSize=14;fontSource=https%3A%2F%2Ffonts.googleapis.com%2Fcss%3Ffamily%3DArchitects%2BDaughter;fontColor=default;" parent="1" vertex="1">
          <mxGeometry x="845" y="750" width="180" height="30" as="geometry" />
        </mxCell>
        <mxCell id="xmQ5W1vkcLa3e4TFt4M9-17" value="" style="shape=module;jettyWidth=8;jettyHeight=4;shadow=0;sketch=1;hachureGap=4;jiggle=2;curveFitting=1;strokeColor=default;fontFamily=Architects Daughter;fontSize=14;fontSource=https%3A%2F%2Ffonts.googleapis.com%2Fcss%3Ffamily%3DArchitects%2BDaughter;fontColor=default;" parent="xmQ5W1vkcLa3e4TFt4M9-16" vertex="1">
          <mxGeometry x="1" width="20" height="20" relative="1" as="geometry">
            <mxPoint x="-27" y="7" as="offset" />
          </mxGeometry>
        </mxCell>
        <mxCell id="xmQ5W1vkcLa3e4TFt4M9-20" value="wpa_supplicant" style="html=1;dropTarget=0;shadow=0;sketch=1;hachureGap=4;jiggle=2;curveFitting=1;strokeColor=default;fontFamily=Architects Daughter;fontSize=14;fontSource=https%3A%2F%2Ffonts.googleapis.com%2Fcss%3Ffamily%3DArchitects%2BDaughter;fontColor=default;" parent="1" vertex="1">
          <mxGeometry x="482.25" y="750" width="170" height="30" as="geometry" />
        </mxCell>
        <mxCell id="xmQ5W1vkcLa3e4TFt4M9-21" value="" style="shape=module;jettyWidth=8;jettyHeight=4;shadow=0;sketch=1;hachureGap=4;jiggle=2;curveFitting=1;strokeColor=default;fontFamily=Architects Daughter;fontSize=14;fontSource=https%3A%2F%2Ffonts.googleapis.com%2Fcss%3Ffamily%3DArchitects%2BDaughter;fontColor=default;" parent="xmQ5W1vkcLa3e4TFt4M9-20" vertex="1">
          <mxGeometry x="1" width="20" height="20" relative="1" as="geometry">
            <mxPoint x="-27" y="7" as="offset" />
          </mxGeometry>
        </mxCell>
        <mxCell id="xmQ5W1vkcLa3e4TFt4M9-27" value="IWD" style="html=1;dropTarget=0;shadow=0;sketch=1;hachureGap=4;jiggle=2;curveFitting=1;strokeColor=default;fontFamily=Architects Daughter;fontSize=14;fontSource=https%3A%2F%2Ffonts.googleapis.com%2Fcss%3Ffamily%3DArchitects%2BDaughter;fontColor=default;" parent="1" vertex="1">
          <mxGeometry x="695" y="750" width="100" height="30" as="geometry" />
        </mxCell>
        <mxCell id="xmQ5W1vkcLa3e4TFt4M9-28" value="" style="shape=module;jettyWidth=8;jettyHeight=4;shadow=0;sketch=1;hachureGap=4;jiggle=2;curveFitting=1;strokeColor=default;fontFamily=Architects Daughter;fontSize=14;fontSource=https%3A%2F%2Ffonts.googleapis.com%2Fcss%3Ffamily%3DArchitects%2BDaughter;fontColor=default;" parent="xmQ5W1vkcLa3e4TFt4M9-27" vertex="1">
          <mxGeometry x="1" width="20" height="20" relative="1" as="geometry">
            <mxPoint x="-27" y="7" as="offset" />
          </mxGeometry>
        </mxCell>
        <mxCell id="xmQ5W1vkcLa3e4TFt4M9-33" value="X Windows System" style="shape=module;align=left;spacingLeft=20;align=center;verticalAlign=top;shadow=0;sketch=1;hachureGap=4;jiggle=2;curveFitting=1;strokeColor=default;fontFamily=Architects Daughter;fontSize=14;fontSource=https%3A%2F%2Ffonts.googleapis.com%2Fcss%3Ffamily%3DArchitects%2BDaughter;fontColor=default;" parent="1" vertex="1">
          <mxGeometry x="122.25" y="400" width="160" height="30" as="geometry" />
        </mxCell>
        <mxCell id="xmQ5W1vkcLa3e4TFt4M9-36" value="V4L2" style="shape=module;align=left;spacingLeft=20;align=center;verticalAlign=top;shadow=0;sketch=1;hachureGap=4;jiggle=2;curveFitting=1;strokeColor=default;fontFamily=Architects Daughter;fontSize=14;fontSource=https%3A%2F%2Ffonts.googleapis.com%2Fcss%3Ffamily%3DArchitects%2BDaughter;fontColor=default;" parent="1" vertex="1">
          <mxGeometry x="122.25" y="570" width="160" height="30" as="geometry" />
        </mxCell>
        <mxCell id="xmQ5W1vkcLa3e4TFt4M9-53" style="edgeStyle=orthogonalEdgeStyle;rounded=0;comic=0;sketch=1;hachureGap=4;jiggle=2;curveFitting=1;orthogonalLoop=1;jettySize=auto;html=1;entryX=0;entryY=0;entryDx=0;entryDy=15;entryPerimeter=0;strokeColor=default;fontFamily=Architects Daughter;fontSize=14;endArrow=none;endFill=0;fontSource=https%3A%2F%2Ffonts.googleapis.com%2Fcss%3Ffamily%3DArchitects%2BDaughter;fontColor=default;" parent="1" source="xmQ5W1vkcLa3e4TFt4M9-38" target="xmQ5W1vkcLa3e4TFt4M9-44" edge="1">
          <mxGeometry relative="1" as="geometry">
            <Array as="points">
              <mxPoint x="770" y="455" />
              <mxPoint x="770" y="375" />
            </Array>
          </mxGeometry>
        </mxCell>
        <mxCell id="xmQ5W1vkcLa3e4TFt4M9-54" style="edgeStyle=orthogonalEdgeStyle;rounded=0;comic=0;sketch=1;hachureGap=4;jiggle=2;curveFitting=1;orthogonalLoop=1;jettySize=auto;html=1;entryX=0;entryY=0;entryDx=0;entryDy=15;entryPerimeter=0;strokeColor=default;fontFamily=Architects Daughter;fontSize=14;endArrow=none;endFill=0;fontSource=https%3A%2F%2Ffonts.googleapis.com%2Fcss%3Ffamily%3DArchitects%2BDaughter;fontColor=default;" parent="1" source="xmQ5W1vkcLa3e4TFt4M9-38" target="xmQ5W1vkcLa3e4TFt4M9-45" edge="1">
          <mxGeometry relative="1" as="geometry">
            <Array as="points">
              <mxPoint x="710" y="455" />
              <mxPoint x="710" y="455" />
            </Array>
          </mxGeometry>
        </mxCell>
        <mxCell id="xmQ5W1vkcLa3e4TFt4M9-55" style="edgeStyle=orthogonalEdgeStyle;rounded=0;comic=0;sketch=1;hachureGap=4;jiggle=2;curveFitting=1;orthogonalLoop=1;jettySize=auto;html=1;entryX=0;entryY=0;entryDx=0;entryDy=25;entryPerimeter=0;strokeColor=default;fontFamily=Architects Daughter;fontSize=14;endArrow=none;endFill=0;fontSource=https%3A%2F%2Ffonts.googleapis.com%2Fcss%3Ffamily%3DArchitects%2BDaughter;fontColor=default;" parent="1" source="xmQ5W1vkcLa3e4TFt4M9-38" target="xmQ5W1vkcLa3e4TFt4M9-46" edge="1">
          <mxGeometry relative="1" as="geometry">
            <Array as="points">
              <mxPoint x="770" y="455" />
              <mxPoint x="770" y="535" />
            </Array>
          </mxGeometry>
        </mxCell>
        <mxCell id="xmQ5W1vkcLa3e4TFt4M9-38" value="Media APIs" style="shape=module;align=left;spacingLeft=20;align=center;verticalAlign=top;shadow=0;sketch=1;hachureGap=4;jiggle=2;curveFitting=1;strokeColor=default;fontFamily=Architects Daughter;fontSize=14;fontSource=https%3A%2F%2Ffonts.googleapis.com%2Fcss%3Ffamily%3DArchitects%2BDaughter;fontColor=default;" parent="1" vertex="1">
          <mxGeometry x="580" y="440" width="110" height="30" as="geometry" />
        </mxCell>
        <mxCell id="xmQ5W1vkcLa3e4TFt4M9-39" value="Ubuntu-like File System" style="shape=module;align=left;spacingLeft=20;align=center;verticalAlign=top;shadow=0;sketch=1;hachureGap=4;jiggle=2;curveFitting=1;strokeColor=default;fontFamily=Architects Daughter;fontSize=14;fontSource=https%3A%2F%2Ffonts.googleapis.com%2Fcss%3Ffamily%3DArchitects%2BDaughter;fontColor=default;" parent="1" vertex="1">
          <mxGeometry x="580" y="580" width="190" height="30" as="geometry" />
        </mxCell>
        <mxCell id="xmQ5W1vkcLa3e4TFt4M9-44" value="Vulkan" style="shape=module;align=left;spacingLeft=20;align=center;verticalAlign=top;shadow=0;sketch=1;hachureGap=4;jiggle=2;curveFitting=1;strokeColor=default;fontFamily=Architects Daughter;fontSize=14;fontSource=https%3A%2F%2Ffonts.googleapis.com%2Fcss%3Ffamily%3DArchitects%2BDaughter;fontColor=default;" parent="1" vertex="1">
          <mxGeometry x="920" y="360" width="80" height="30" as="geometry" />
        </mxCell>
        <mxCell id="xmQ5W1vkcLa3e4TFt4M9-45" value="OpenGL" style="shape=module;align=left;spacingLeft=20;align=center;verticalAlign=top;shadow=0;sketch=1;hachureGap=4;jiggle=2;curveFitting=1;strokeColor=default;fontFamily=Architects Daughter;fontSize=14;fontSource=https%3A%2F%2Ffonts.googleapis.com%2Fcss%3Ffamily%3DArchitects%2BDaughter;fontColor=default;" parent="1" vertex="1">
          <mxGeometry x="910" y="440" width="90" height="30" as="geometry" />
        </mxCell>
        <mxCell id="xmQ5W1vkcLa3e4TFt4M9-46" value="EGL" style="shape=module;align=left;spacingLeft=20;align=center;verticalAlign=top;shadow=0;sketch=1;hachureGap=4;jiggle=2;curveFitting=1;strokeColor=default;fontFamily=Architects Daughter;fontSize=14;fontSource=https%3A%2F%2Ffonts.googleapis.com%2Fcss%3Ffamily%3DArchitects%2BDaughter;fontColor=default;" parent="1" vertex="1">
          <mxGeometry x="920" y="510" width="70" height="30" as="geometry" />
        </mxCell>
        <mxCell id="I-8A7EPQsvt3c0KuI_di-7" style="edgeStyle=orthogonalEdgeStyle;rounded=0;sketch=1;hachureGap=4;jiggle=2;curveFitting=1;orthogonalLoop=1;jettySize=auto;html=1;entryX=0.75;entryY=0;entryDx=0;entryDy=0;fontFamily=Architects Daughter;fontSource=https%3A%2F%2Ffonts.googleapis.com%2Fcss%3Ffamily%3DArchitects%2BDaughter;fontSize=16;endArrow=none;endFill=0;fontColor=default;" parent="1" source="I-8A7EPQsvt3c0KuI_di-2" target="DlY7R9DRMtD9EthRwCqd-58" edge="1">
          <mxGeometry relative="1" as="geometry" />
        </mxCell>
        <mxCell id="I-8A7EPQsvt3c0KuI_di-9" style="edgeStyle=orthogonalEdgeStyle;rounded=0;sketch=1;hachureGap=4;jiggle=2;curveFitting=1;orthogonalLoop=1;jettySize=auto;html=1;entryX=0.25;entryY=0;entryDx=0;entryDy=0;fontFamily=Architects Daughter;fontSource=https%3A%2F%2Ffonts.googleapis.com%2Fcss%3Ffamily%3DArchitects%2BDaughter;fontSize=16;endArrow=none;endFill=0;fontColor=default;" parent="1" source="I-8A7EPQsvt3c0KuI_di-2" target="DlY7R9DRMtD9EthRwCqd-67" edge="1">
          <mxGeometry relative="1" as="geometry" />
        </mxCell>
        <mxCell id="I-8A7EPQsvt3c0KuI_di-2" value="Core Business Logic" style="html=1;dropTarget=0;hachureGap=4;fontFamily=Architects Daughter;fontSize=14;fillColor=default;comic=0;strokeColor=default;sketch=1;fontSource=https%3A%2F%2Ffonts.googleapis.com%2Fcss%3Ffamily%3DArchitects%2BDaughter;fontColor=default;" parent="1" vertex="1">
          <mxGeometry x="102.25" y="780" width="200" height="40" as="geometry" />
        </mxCell>
        <mxCell id="I-8A7EPQsvt3c0KuI_di-3" value="" style="shape=module;jettyWidth=8;jettyHeight=4;hachureGap=4;fontFamily=Architects Daughter;fontSize=18;fillColor=default;comic=0;strokeColor=default;sketch=1;fontSource=https%3A%2F%2Ffonts.googleapis.com%2Fcss%3Ffamily%3DArchitects%2BDaughter;fontColor=default;" parent="I-8A7EPQsvt3c0KuI_di-2" vertex="1">
          <mxGeometry x="1" width="20" height="20" relative="1" as="geometry">
            <mxPoint x="-27" y="7" as="offset" />
          </mxGeometry>
        </mxCell>
        <mxCell id="R04J_yNQeiIlIAsg2Dsq-2" value="Scheduled &#xa;Uploading Application" style="shape=module;align=left;spacingLeft=20;align=center;verticalAlign=top;fontColor=default;sketch=1;fontFamily=Architects Daughter;fontSource=https%3A%2F%2Ffonts.googleapis.com%2Fcss%3Ffamily%3DArchitects%2BDaughter;" parent="1" vertex="1">
          <mxGeometry x="320" y="680" width="160" height="40" as="geometry" />
        </mxCell>
      </root>
    </mxGraphModel>
  </diagram>
</mxfile>
